<svg enable-background="new 0 0 2155.09 933.262" height="934" viewBox="0 0 2155.09 933.262" width="2156" xmlns="http://www.w3.org/2000/svg"><path d="m92.169 0 99.854 858.446c3.553 30.535 23.078 55.699 49.638 67.527 10.545 4.695 22.19 7.288 34.384 7.288h1581.033c42.124 0 77.819-30.987 83.74-72.687l103.815-731.102 18.382-129.472zm209.702 303.437c0-21.979 17.833-39.812 39.812-39.812h88.138c21.978 0 39.812 17.833 39.812 39.812v434.939c0 21.979-17.833 39.812-39.812 39.812h-88.138c-21.978 0-39.812-17.833-39.812-39.812zm506.104 434.939c0 21.979-17.833 39.812-39.812 39.812h-88.138c-4.13 0-8.106-.635-11.856-1.79-16.184-5.047-27.956-20.174-27.956-38.022v-434.939c0-21.979 17.833-39.812 39.812-39.812h88.138c21.978 0 39.812 17.833 39.812 39.812zm341.162 0c0 21.979-17.833 39.812-39.812 39.812h-88.138c-21.978 0-39.812-17.833-39.812-39.812v-434.939c0-21.979 17.833-39.812 39.812-39.812h88.138c21.978 0 39.812 17.833 39.812 39.812z" fill="#cad9dc"/><path d="m92.169 0 99.854 858.446c3.553 30.535 23.078 55.699 49.638 67.527 10.545 4.695 22.19 7.288 34.384 7.288h943.539c41.856 0 77.424-30.62 83.641-72.024l110.384-734.838 18.989-126.399zm209.702 303.437c0-21.979 17.833-39.812 39.812-39.812h88.138c21.978 0 39.812 17.833 39.812 39.812v434.939c0 21.979-17.833 39.812-39.812 39.812h-88.138c-21.978 0-39.812-17.833-39.812-39.812zm506.104 434.939c0 21.979-17.833 39.812-39.812 39.812h-88.138c-.691 0-1.367-.014-2.044-.056-.634-.028-1.255-.07-1.875-.141-.098 0-.211-.014-.324-.042-.606-.043-1.212-.127-1.819-.226-.507-.07-1.015-.155-1.523-.268-.409-.07-.803-.155-1.198-.254-.437-.084-.888-.197-1.325-.31-.578-.141-1.156-.31-1.734-.494h-.014c-.747-.24-1.48-.494-2.213-.775-.465-.169-.93-.352-1.382-.55-.028-.014-.071-.028-.099-.043-.437-.183-.874-.366-1.297-.578-.226-.099-.451-.211-.677-.324-1.523-.748-2.989-1.593-4.399-2.523-.381-.24-.761-.508-1.128-.776-.352-.24-.705-.493-1.044-.761-.423-.31-.832-.635-1.226-.973-.409-.324-.818-.677-1.198-1.029-.465-.409-.916-.832-1.353-1.269-.254-.24-.493-.494-.733-.747-.183-.169-.352-.352-.521-.536-.24-.268-.479-.536-.719-.803-1.071-1.212-2.059-2.467-2.961-3.792-.296-.423-.578-.86-.86-1.297s-.55-.888-.803-1.34c-.268-.437-.522-.902-.761-1.367-.24-.452-.479-.917-.705-1.396-.451-.944-.874-1.917-1.24-2.89-.141-.367-.282-.748-.409-1.128-.127-.338-.24-.677-.352-1.015-.042-.141-.085-.282-.127-.409-.127-.409-.24-.818-.338-1.227-.085-.254-.155-.507-.211-.775-.183-.719-.339-1.424-.479-2.157-.099-.479-.183-.958-.254-1.438 0-.042-.014-.098-.014-.14-.085-.508-.155-1.03-.198-1.551-.042-.211-.056-.437-.071-.648-.056-.564-.098-1.142-.127-1.72-.042-.677-.056-1.353-.056-2.044v-434.939c0-21.979 17.833-39.812 39.812-39.812h88.138c21.978 0 39.812 17.833 39.812 39.812v434.939zm341.162 0c0 21.979-17.833 39.812-39.812 39.812h-88.138c-21.978 0-39.812-17.833-39.812-39.812v-434.939c0-21.979 17.833-39.812 39.812-39.812h88.138c21.978 0 39.812 17.833 39.812 39.812z" fill="#d8eaed"/><path d="m337.115 291.821-1.41 453.943c0 21.979 16.917 32.425 94.116 32.425h-88.138c-21.978 0-39.812-17.833-39.812-39.812v-434.94c0-21.979 17.833-39.812 39.812-39.812h88.138c-64.511 0-92.706 6.217-92.706 28.196z" fill="#b8c7c9"/><path d="m2121.587 125.469h-2088.631c-6.752 0-12.555-4.787-13.84-11.415l-18.854-97.274c-1.686-8.7 4.978-16.78 13.84-16.78h2126.885c8.893 0 15.565 8.134 13.825 16.855l-19.4 97.274c-1.314 6.593-7.102 11.34-13.825 11.34z" fill="#cad9dc"/><path d="m1484.375 125.469h-1451.419c-6.752 0-12.555-4.787-13.84-11.415l-18.854-97.274c-1.686-8.7 4.978-16.78 13.84-16.78h1489.673c8.893 0 15.565 8.134 13.825 16.855l-19.4 97.274c-1.315 6.593-7.102 11.34-13.825 11.34z" fill="#d8eaed"/><path d="m106.864 126.34 1307.308-.871-10.648 65.449-1294.915-49.577z" fill="#cad9dc"/><g fill="#b8c7c9"><path d="m1414.172 125.469h631.027l-9.293 65.449h-632.382z"/><path d="m686.425 767.559c12.744 7.162 37.218 10.63 81.738 10.63h-88.138c-.691 0-1.367-.014-2.044-.056-.634-.028-1.255-.07-1.875-.141-.098 0-.211-.014-.324-.042-.606-.043-1.212-.127-1.819-.226-.507-.07-1.015-.155-1.523-.268-.409-.07-.803-.155-1.198-.254-.437-.084-.888-.197-1.325-.31-.578-.156-1.156-.31-1.734-.494h-.014c-.747-.24-1.48-.494-2.213-.775-.465-.169-.93-.352-1.382-.55-.028-.014-.071-.028-.099-.043-.437-.183-.874-.366-1.297-.578-.226-.099-.451-.211-.677-.324-1.523-.748-2.989-1.593-4.399-2.523-.381-.24-.761-.508-1.128-.776-.352-.24-.705-.493-1.044-.761-.423-.31-.832-.635-1.226-.973-.409-.324-.818-.677-1.198-1.029-.465-.409-.916-.832-1.353-1.269-.254-.24-.493-.494-.733-.747-.183-.169-.352-.352-.521-.536-.24-.268-.479-.536-.719-.803-1.071-1.212-2.059-2.467-2.961-3.792-.296-.423-.578-.86-.86-1.297s-.55-.888-.803-1.34c-.268-.437-.522-.902-.761-1.367-.24-.452-.479-.917-.705-1.396-.451-.944-.874-1.917-1.24-2.89-.141-.367-.282-.748-.409-1.128-.127-.338-.24-.677-.352-1.015-.042-.141-.085-.282-.127-.409-.127-.409-.24-.818-.338-1.227-.085-.254-.155-.507-.211-.775-.183-.719-.339-1.424-.479-2.157-.099-.465-.183-.958-.254-1.438 0-.042-.014-.098-.014-.14-.085-.508-.155-1.03-.198-1.551-.042-.211-.056-.437-.071-.648-.056-.564-.098-1.142-.127-1.72-.042-.677-.056-1.353-.056-2.044v-434.94c0-21.979 17.833-39.812 39.812-39.812h88.138c-64.511 0-92.706 6.217-92.706 28.195l-1.41 453.943c-0 9.305 3.031 16.537 12.377 21.796z"/><path d="m1109.326 778.188h-88.138c-21.978 0-39.812-17.833-39.812-39.812v-434.939c0-21.979 17.833-39.812 39.812-39.812h88.138c-64.511 0-92.706 6.217-92.706 28.195l-.846 273.183-.564 180.76c0 21.979 16.917 32.425 94.116 32.425z"/></g><path d="m686.602 44.801-580.433 713.35c-10.801 12.626-11.292 31.088-1.178 44.27 13.608 17.736 40.094 18.441 54.627 1.454l580.433-713.35c10.801-12.626 11.292-31.088 1.178-44.27-13.608-17.737-40.094-18.441-54.627-1.454z" fill="#7c6d6d"/><path d="m2044.632 129.472-103.815 731.102c-5.921 41.701-41.616 72.687-83.74 72.687h-1581.033c-12.194 0-23.839-2.594-34.384-7.288 0 0 188.316-35.709 426.509-149.576h.014c6.048-2.904 12.138-5.837 18.242-8.839 12.744 7.162 37.218 10.63 81.738 10.63 21.978 0 39.812-17.833 39.812-39.812v-35.384c57.124-32.862 115.46-70.136 173.401-112.316 11.49-8.36 22.951-16.917 34.398-25.672l-.564 180.76c0 21.978 16.917 32.425 94.116 32.425 21.978 0 39.812-17.833 39.812-39.812v-286.45c97.006-91.197 188.006-198.847 264.471-325.528.183-.31.38-.621.564-.931l630.163 1.41z" fill="#343e3f" opacity=".1"/></svg>