<svg xmlns="http://www.w3.org/2000/svg"  viewBox="0 0 64 64" width="64px" height="64px"><path fill="#ade8f4" d="M8,23H56a2,2,0,0,1,2,2V56a0,0,0,0,1,0,0H6a0,0,0,0,1,0,0V25A2,2,0,0,1,8,23Z"/><path fill="#48cae4" d="M43,48a19.987,19.987,0,0,1-5.939-.9A20.907,20.907,0,0,0,51.6,23H8a2,2,0,0,0-2,2V56H58V48Z"/><path fill="#e9f1f2" d="M39,53v3H25V53H3v4a4,4,0,0,0,4,4H57a4,4,0,0,0,4-4V53Z"/><path fill="#d0d8da" d="M60,57H10a4,4,0,0,1-4-4H3v4a4,4,0,0,0,4,4H57a4,4,0,0,0,4-4v-.141A3.977,3.977,0,0,1,60,57Z"/><circle cx="52" cy="57" r="1" fill="#93999a"/><circle cx="56" cy="57" r="1" fill="#93999a"/><circle cx="8" cy="57" r="1" fill="#93999a"/><circle cx="12" cy="57" r="1" fill="#93999a"/><path fill="#fdc741" d="M52.515,39.143l-5-3a1,1,0,0,0-1.03,1.714L51,40.566V43a1,1,0,0,0,2,0V40A1,1,0,0,0,52.515,39.143Z"/><path fill="#fdc741" d="M16.485,36.143l-5,3A1,1,0,0,0,11,40v3a1,1,0,0,0,2,0V40.566l4.515-2.709a1,1,0,0,0-1.03-1.714Z"/><path fill="#fdc741" d="M44,39a1,1,0,0,0-1,1v5a1,1,0,0,0,2,0V40A1,1,0,0,0,44,39Z"/><path fill="#fdc741" d="M32,43a1,1,0,0,0-1,1v4a1,1,0,0,0,2,0V44A1,1,0,0,0,32,43Z"/><path fill="#fdc741" d="M20.245,39a1,1,0,0,0-1,1v5a1,1,0,0,0,2,0V40A1,1,0,0,0,20.245,39Z"/><circle cx="52" cy="45" r="2" fill="#fffa48"/><circle cx="44" cy="47" r="2" fill="#fffa48"/><circle cx="12" cy="45" r="2" fill="#fffa48"/><circle cx="32" cy="50" r="2" fill="#fffa48"/><circle cx="20.245" cy="47" r="2" fill="#fffa48"/><circle cx="32" cy="24" r="21" fill="#fffa48"/><path fill="#fcea42" d="M51.53,31.71A21,21,0,1,1,22.47,5.29,20.993,20.993,0,0,0,42,34,20.782,20.782,0,0,0,51.53,31.71Z"/><circle cx="32" cy="24" r="17" fill="#fdc741"/><path fill="#efad1b" d="M32,7A17,17,0,1,0,49,24,17,17,0,0,0,32,7ZM43.925,33.9c-.635.057-1.275.1-1.925.1A21,21,0,0,1,21,13c0-.166.02-.326.023-.491a16.967,16.967,0,0,1,22.9,21.4Z"/><circle cx="52" cy="45" r="1" fill="#fdc741"/><circle cx="44" cy="47" r="1" fill="#fdc741"/><circle cx="32" cy="50" r="1" fill="#fdc741"/><circle cx="20.245" cy="47" r="1" fill="#fdc741"/><circle cx="12" cy="45" r="1" fill="#fdc741"/><circle cx="19" cy="24" r="1" fill="#fcea42"/><circle cx="45" cy="24" r="1" fill="#fffa48"/><path fill="#fffa48" d="M27,29a1,1,0,0,0,1-1V20a1,1,0,0,0-2,0v3.764L23.9,19.553A1,1,0,0,0,22,20v8a1,1,0,0,0,2,0V24.236l2.105,4.211A1,1,0,0,0,27,29Z"/><path fill="#fffa48" d="M35,21a1,1,0,0,0,0-2H31a1,1,0,0,0-1,1v8a1,1,0,0,0,2,0V25h2a1,1,0,0,0,0-2H32V21Z"/><path fill="#fffa48" d="M43,21a1,1,0,0,0,0-2H39a1,1,0,0,0,0,2h1v7a1,1,0,0,0,2,0V21Z"/><path fill="#fffa48" d="M26.555,16.832,32,13.2l5.445,3.63a1,1,0,1,0,1.11-1.664l-6-4a1,1,0,0,0-1.11,0l-6,4a1,1,0,0,0,1.11,1.664Z"/><path fill="#fffa48" d="M37.445,31.168,32,34.8l-5.445-3.63a1,1,0,0,0-1.11,1.664l6,4a1,1,0,0,0,1.11,0l6-4a1,1,0,1,0-1.11-1.664Z"/><path fill="#fcea42" d="M46,24a1,1,0,0,1-1,1,.863.863,0,0,1-.28-.04,13.962,13.962,0,0,0-.39-1.7A1,1,0,0,1,46,24Z"/><path fill="#fcea42" d="M27.85,28.52a.963.963,0,0,1-.62.45A.908.908,0,0,1,27,29a1,1,0,0,1-.89-.55L24,24.24V28a1,1,0,0,1-2,0V20a.857.857,0,0,1,.07-.36A21.072,21.072,0,0,0,27.85,28.52Z"/><path fill="#fcea42" d="M44,20a.992.992,0,0,1-.56.89A15.675,15.675,0,0,0,42.42,19H43A1,1,0,0,1,44,20Z"/><path fill="#fcea42" d="M33.83,12.02a17.372,17.372,0,0,0-2.59-.71l.21-.14a.963.963,0,0,1,1.1,0Z"/><path fill="#fcea42" d="M37.52,33.51l-4.97,3.32a.975.975,0,0,1-1.1,0l-6-4a1,1,0,0,1,1.1-1.66L32,34.8l3-2A19.6,19.6,0,0,0,37.52,33.51Z"/></svg>