<svg id="visual" viewBox="0 0 900 600" width="900" height="600" xmlns="http://www.w3.org/2000/svg" xmlns:xlink="http://www.w3.org/1999/xlink" version="1.1"><path d="M0 412L129 412L129 428L257 428L257 408L386 408L386 439L514 439L514 399L643 399L643 472L771 472L771 434L900 434L900 433L900 601L900 601L771 601L771 601L643 601L643 601L514 601L514 601L386 601L386 601L257 601L257 601L129 601L129 601L0 601Z" fill="#9900ff"></path><path d="M0 495L129 495L129 487L257 487L257 499L386 499L386 517L514 517L514 490L643 490L643 503L771 503L771 505L900 505L900 513L900 601L900 601L771 601L771 601L643 601L643 601L514 601L514 601L386 601L386 601L257 601L257 601L129 601L129 601L0 601Z" fill="#7700c6"></path><path d="M0 531L129 531L129 536L257 536L257 528L386 528L386 569L514 569L514 540L643 540L643 559L771 559L771 524L900 524L900 528L900 601L900 601L771 601L771 601L643 601L643 601L514 601L514 601L386 601L386 601L257 601L257 601L129 601L129 601L0 601Z" fill="#560090"></path></svg>