<svg
                          xmlns="http://www.w3.org/2000/svg"
                          x="0px"
                          y="0px"
                          width="64"
                          height="64"
                          viewBox="0 0 64 64"
                        >
                          <path
                            fill="#efc88e"
                            d="M32 4A28 28 0 1 0 32 60A28 28 0 1 0 32 4Z"
                          ></path>
                          <path
                            fill="#f9dd8f"
                            d="M32 9A23 23 0 1 0 32 55A23 23 0 1 0 32 9Z"
                          ></path>
                          <path
                            fill="#ffeec9"
                            d="M47.828 15.322c-.885-.84-1.834-1.613-2.844-2.305L13.016 44.984c.691 1.008 1.462 1.956 2.301 2.84L47.828 15.322zM10.39 39.891c.374 1.023.82 2.011 1.329 2.961l31.133-31.133c-.947-.508-1.933-.954-2.954-1.327L10.39 39.891zM54.033 25.397c-.927-3.097-2.489-5.918-4.535-8.315L17.082 49.498c2.397 2.046 5.218 3.608 8.315 4.535L54.033 25.397z"
                          ></path>
                          <path
                            fill="#8d6c9f"
                            d="M32,61C16.009,61,3,47.99,3,32S16.009,3,32,3s29,13.01,29,29S47.991,61,32,61z M32,5 C17.112,5,5,17.112,5,32s12.112,27,27,27s27-12.112,27-27S46.888,5,32,5z"
                          ></path>
                          <path
                            fill="#8d6c9f"
                            d="M13.906 47.199c-.296 0-.589-.131-.787-.382C9.77 42.556 8 37.432 8 32 8 18.767 18.767 8 32 8s24 10.767 24 24c0 5.326-1.709 10.372-4.942 14.59-.336.438-.963.521-1.402.186-.438-.336-.521-.964-.185-1.402C52.434 41.507 54 36.883 54 32c0-12.131-9.869-22-22-22s-22 9.869-22 22c0 4.979 1.622 9.676 4.691 13.581.341.435.266 1.063-.168 1.404C14.34 47.13 14.122 47.199 13.906 47.199zM15.891 50.789c-.239 0-.479-.086-.671-.259-.409-.371-.44-1.003-.07-1.412l1.343-1.482c.37-.411 1.002-.44 1.413-.07.409.371.44 1.003.07 1.412l-1.343 1.482C16.436 50.679 16.164 50.789 15.891 50.789zM19.993 53.78c-.17 0-.342-.043-.5-.135-.478-.276-.641-.889-.364-1.366l1.002-1.73c.276-.478.888-.643 1.366-.364.478.276.641.889.364 1.366l-1.002 1.73C20.674 53.602 20.338 53.78 19.993 53.78zM24.635 55.84c-.102 0-.205-.016-.307-.048-.525-.17-.814-.733-.645-1.259l.613-1.904c.169-.525.732-.811 1.258-.646.525.17.814.733.645 1.259l-.613 1.904C25.451 55.57 25.058 55.84 24.635 55.84zM29.607 56.873c-.033 0-.066-.002-.1-.005-.55-.055-.951-.544-.896-1.094l.197-1.99c.055-.549.535-.941 1.094-.896.55.055.951.544.896 1.094l-.197 1.99C30.55 56.487 30.115 56.873 29.607 56.873zM34.679 56.848c-.502 0-.936-.378-.992-.89l-.221-1.988c-.061-.549.334-1.043.883-1.104.539-.055 1.043.334 1.104.884l.221 1.988c.061.549-.334 1.043-.883 1.104C34.754 56.846 34.716 56.848 34.679 56.848zM39.638 55.749c-.418 0-.808-.264-.948-.682l-.637-1.896c-.176-.523.106-1.091.63-1.267.524-.175 1.091.106 1.267.63l.637 1.896c.176.523-.106 1.091-.63 1.267C39.851 55.732 39.744 55.749 39.638 55.749zM44.254 53.633c-.341 0-.673-.174-.86-.488l-1.023-1.719c-.282-.475-.126-1.089.348-1.371.474-.283 1.088-.127 1.371.348l1.023 1.719c.282.475.126 1.089-.348 1.371C44.604 53.588 44.428 53.633 44.254 53.633z"
                          ></path>
                          <path
                            fill="#8d6c9f"
                            d="M48.321,50.596c-0.269,0-0.536-0.107-0.733-0.32l-1.36-1.467 c-0.375-0.404-0.352-1.037,0.053-1.413c0.406-0.375,1.037-0.353,1.414,0.054l1.36,1.467c0.375,0.404,0.352,1.037-0.053,1.413 C48.809,50.508,48.565,50.596,48.321,50.596z"
                          ></path>
                          <g>
                            <path
                              fill="#8d6c9f"
                              d="M30,23h4c1.654,0,3,1.346,3,3c0,0.552,0.447,1,1,1s1-0.448,1-1c0-2.757-2.243-5-5-5h-1v-3 c0-0.552-0.447-1-1-1c-0.553,0-1,0.448-1,1v3h-1c-2.757,0-5,2.243-5,5v2c0,2.757,2.243,5,5,5h4c1.654,0,3,1.346,3,3v2 c0,1.654-1.346,3-3,3h-1v-6c0-0.552-0.447-1-1-1c-0.553,0-1,0.448-1,1v6h-1c-1.654,0-3-1.346-3-3c0-0.552-0.447-1-1-1 s-1,0.448-1,1c0,2.757,2.243,5,5,5h1v3c0,0.552,0.447,1,1,1c0.553,0,1-0.448,1-1v-3h1c2.757,0,5-2.243,5-5v-2c0-2.757-2.243-5-5-5 h-1v-6c0-0.552-0.447-1-1-1c-0.553,0-1,0.448-1,1v6h-1c-1.654,0-3-1.346-3-3v-2C27,24.346,28.346,23,30,23z"
                            ></path>
                          </g>
                          <g>
                            <path
                              fill="#fff7f7"
                              d="M15.284 25.282L16.345 27.223 18.286 28.284 16.345 29.345 15.284 31.286 14.223 29.345 12.282 28.284 14.223 27.223z"
                            ></path>
                          </g>
                          <g>
                            <path
                              fill="#fff7f7"
                              d="M43.587 42.032L44.087 42.945 45 43.445 44.087 43.944 43.587 44.857 43.088 43.944 42.175 43.445 43.088 42.945z"
                            ></path>
                          </g>
                          <g>
                            <path
                              fill="#fff7f7"
                              d="M45.419 19L46.274 20.564 47.838 21.419 46.274 22.274 45.419 23.838 44.564 22.274 43 21.419 44.564 20.564z"
                            ></path>
                          </g>
                        </svg>